%TF.GenerationSoftware,KiCad,Pcbnew,8.0.7*%
%TF.CreationDate,2025-04-10T14:03:16-05:00*%
%TF.ProjectId,AgBot_V2,4167426f-745f-4563-922e-6b696361645f,rev?*%
%TF.SameCoordinates,Original*%
%TF.FileFunction,Soldermask,Top*%
%TF.FilePolarity,Negative*%
%FSLAX46Y46*%
G04 Gerber Fmt 4.6, Leading zero omitted, Abs format (unit mm)*
G04 Created by KiCad (PCBNEW 8.0.7) date 2025-04-10 14:03:16*
%MOMM*%
%LPD*%
G01*
G04 APERTURE LIST*
G04 Aperture macros list*
%AMFreePoly0*
4,1,25,0.333266,0.742596,0.345389,0.732242,0.732242,0.345389,0.760749,0.289441,0.762000,0.273547,0.762000,-0.273547,0.742596,-0.333266,0.732242,-0.345389,0.345389,-0.732242,0.289441,-0.760749,0.273547,-0.762000,-0.273547,-0.762000,-0.333266,-0.742596,-0.345389,-0.732242,-0.732242,-0.345389,-0.760749,-0.289441,-0.762000,-0.273547,-0.762000,0.273547,-0.742596,0.333266,-0.732242,0.345389,
-0.345389,0.732242,-0.289441,0.760749,-0.273547,0.762000,0.273547,0.762000,0.333266,0.742596,0.333266,0.742596,$1*%
%AMFreePoly1*
4,1,25,0.406913,0.920396,0.419036,0.910042,0.910042,0.419036,0.938549,0.363088,0.939800,0.347194,0.939800,-0.347194,0.920396,-0.406913,0.910042,-0.419036,0.419036,-0.910042,0.363088,-0.938549,0.347194,-0.939800,-0.347194,-0.939800,-0.406913,-0.920396,-0.419036,-0.910042,-0.910042,-0.419036,-0.938549,-0.363088,-0.939800,-0.347194,-0.939800,0.347194,-0.920396,0.406913,-0.910042,0.419036,
-0.419036,0.910042,-0.363088,0.938549,-0.347194,0.939800,0.347194,0.939800,0.406913,0.920396,0.406913,0.920396,$1*%
G04 Aperture macros list end*
%ADD10C,4.013200*%
%ADD11C,1.868200*%
%ADD12FreePoly0,180.000000*%
%ADD13FreePoly1,90.000000*%
%ADD14FreePoly1,180.000000*%
%ADD15FreePoly1,270.000000*%
%ADD16FreePoly1,0.000000*%
%ADD17O,2.844800X1.524000*%
%ADD18C,2.153200*%
G04 APERTURE END LIST*
D10*
%TO.C,TCA9548A_MUX0*%
X153581100Y-117068600D03*
X153581100Y-91668600D03*
D11*
X161201100Y-90398600D03*
X161201100Y-92938600D03*
X161201100Y-95478600D03*
X161201100Y-98018600D03*
X161201100Y-100558600D03*
X161201100Y-103098600D03*
X161201100Y-105638600D03*
X161201100Y-108178600D03*
X161201100Y-110718600D03*
X161201100Y-113258600D03*
X161201100Y-115798600D03*
X161201100Y-118338600D03*
X145961100Y-118338600D03*
X145961100Y-115798600D03*
X145961100Y-113258600D03*
X145961100Y-110718600D03*
X145961100Y-108178600D03*
X145961100Y-105638600D03*
X145961100Y-103098600D03*
X145961100Y-100558600D03*
X145961100Y-98018600D03*
X145961100Y-95478600D03*
X145961100Y-92938600D03*
X145961100Y-90398600D03*
%TD*%
D12*
%TO.C,R1*%
X134531100Y-103098600D03*
X142151100Y-103098600D03*
%TD*%
D13*
%TO.C,BNO_1*%
X139611100Y-107718600D03*
X139611100Y-109718600D03*
X139611100Y-111718600D03*
X139611100Y-113718600D03*
%TD*%
%TO.C,BNO_2*%
X139611100Y-117878600D03*
X139611100Y-119878600D03*
X139611100Y-121878600D03*
X139611100Y-123878600D03*
%TD*%
D14*
%TO.C,BNO_3*%
X153121100Y-123418600D03*
X155121100Y-123418600D03*
X157121100Y-123418600D03*
X159121100Y-123418600D03*
%TD*%
D15*
%TO.C,BNO_4*%
X168821100Y-121338600D03*
X168821100Y-119338600D03*
X168821100Y-117338600D03*
X168821100Y-115338600D03*
%TD*%
%TO.C,BNO_5*%
X168821100Y-111178600D03*
X168821100Y-109178600D03*
X168821100Y-107178600D03*
X168821100Y-105178600D03*
%TD*%
%TO.C,BNO_6*%
X168821100Y-101018600D03*
X168821100Y-99018600D03*
X168821100Y-97018600D03*
X168821100Y-95018600D03*
%TD*%
%TO.C,BNO_7*%
X168821100Y-90858600D03*
X168821100Y-88858600D03*
X168821100Y-86858600D03*
X168821100Y-84858600D03*
%TD*%
D16*
%TO.C,BNO_8*%
X159121100Y-85318600D03*
X157121100Y-85318600D03*
X155121100Y-85318600D03*
X153121100Y-85318600D03*
%TD*%
D17*
%TO.C,T1*%
X129451100Y-96748600D03*
X129451100Y-99288600D03*
X129451100Y-94208600D03*
%TD*%
D13*
%TO.C,JETSON*%
X139611100Y-90478600D03*
X139611100Y-92478600D03*
X139611100Y-94478600D03*
X139611100Y-96478600D03*
X139611100Y-98478600D03*
%TD*%
D18*
%TO.C,POWER_IN*%
X129451100Y-118378600D03*
X129451100Y-123378600D03*
%TD*%
%TO.C,VICON*%
X129451100Y-110678600D03*
X129451100Y-105678600D03*
%TD*%
M02*
