M48
; DRILL file {KiCad 8.0.7} date 2025-04-10T14:03:12-0500
; FORMAT={-:-/ absolute / metric / decimal}
; #@! TF.CreationDate,2025-04-10T14:03:12-05:00
; #@! TF.GenerationSoftware,Kicad,Pcbnew,8.0.7
; #@! TF.FileFunction,Plated,1,16,PTH
FMAT,2
METRIC
; #@! TA.AperFunction,Plated,PTH,ComponentDrill
T1C0.813
; #@! TA.AperFunction,Plated,PTH,ComponentDrill
T2C1.110
; #@! TA.AperFunction,Plated,PTH,ComponentDrill
T3C1.300
; #@! TA.AperFunction,Plated,PTH,ComponentDrill
T4C2.540
%
G90
G05
T1
X129.451Y-94.209
X129.451Y-96.749
X129.451Y-99.289
X134.531Y-103.099
X139.611Y-90.479
X139.611Y-92.479
X139.611Y-94.479
X139.611Y-96.479
X139.611Y-98.479
X139.611Y-107.719
X139.611Y-109.719
X139.611Y-111.719
X139.611Y-113.719
X139.611Y-117.879
X139.611Y-119.879
X139.611Y-121.879
X139.611Y-123.879
X142.151Y-103.099
X153.121Y-85.319
X153.121Y-123.419
X155.121Y-85.319
X155.121Y-123.419
X157.121Y-85.319
X157.121Y-123.419
X159.121Y-85.319
X159.121Y-123.419
X168.821Y-84.859
X168.821Y-86.859
X168.821Y-88.859
X168.821Y-90.859
X168.821Y-95.019
X168.821Y-97.019
X168.821Y-99.019
X168.821Y-101.019
X168.821Y-105.179
X168.821Y-107.179
X168.821Y-109.179
X168.821Y-111.179
X168.821Y-115.339
X168.821Y-117.339
X168.821Y-119.339
X168.821Y-121.339
T2
X145.961Y-90.399
X145.961Y-92.939
X145.961Y-95.479
X145.961Y-98.019
X145.961Y-100.559
X145.961Y-103.099
X145.961Y-105.639
X145.961Y-108.179
X145.961Y-110.719
X145.961Y-113.259
X145.961Y-115.799
X145.961Y-118.339
X161.201Y-90.399
X161.201Y-92.939
X161.201Y-95.479
X161.201Y-98.019
X161.201Y-100.559
X161.201Y-103.099
X161.201Y-105.639
X161.201Y-108.179
X161.201Y-110.719
X161.201Y-113.259
X161.201Y-115.799
X161.201Y-118.339
T3
X129.451Y-105.679
X129.451Y-110.679
X129.451Y-118.379
X129.451Y-123.379
T4
X153.581Y-91.669
X153.581Y-117.069
M30
