%TF.GenerationSoftware,KiCad,Pcbnew,8.0.7*%
%TF.CreationDate,2025-04-10T14:03:15-05:00*%
%TF.ProjectId,AgBot_V2,4167426f-745f-4563-922e-6b696361645f,rev?*%
%TF.SameCoordinates,Original*%
%TF.FileFunction,Copper,L7,Inr*%
%TF.FilePolarity,Positive*%
%FSLAX46Y46*%
G04 Gerber Fmt 4.6, Leading zero omitted, Abs format (unit mm)*
G04 Created by KiCad (PCBNEW 8.0.7) date 2025-04-10 14:03:15*
%MOMM*%
%LPD*%
G01*
G04 APERTURE LIST*
G04 Aperture macros list*
%AMOutline5P*
0 Free polygon, 5 corners , with rotation*
0 The origin of the aperture is its center*
0 number of corners: always 5*
0 $1 to $10 corner X, Y*
0 $11 Rotation angle, in degrees counterclockwise*
0 create outline with 5 corners*
4,1,5,$1,$2,$3,$4,$5,$6,$7,$8,$9,$10,$1,$2,$11*%
%AMOutline6P*
0 Free polygon, 6 corners , with rotation*
0 The origin of the aperture is its center*
0 number of corners: always 6*
0 $1 to $12 corner X, Y*
0 $13 Rotation angle, in degrees counterclockwise*
0 create outline with 6 corners*
4,1,6,$1,$2,$3,$4,$5,$6,$7,$8,$9,$10,$11,$12,$1,$2,$13*%
%AMOutline7P*
0 Free polygon, 7 corners , with rotation*
0 The origin of the aperture is its center*
0 number of corners: always 7*
0 $1 to $14 corner X, Y*
0 $15 Rotation angle, in degrees counterclockwise*
0 create outline with 7 corners*
4,1,7,$1,$2,$3,$4,$5,$6,$7,$8,$9,$10,$11,$12,$13,$14,$1,$2,$15*%
%AMOutline8P*
0 Free polygon, 8 corners , with rotation*
0 The origin of the aperture is its center*
0 number of corners: always 8*
0 $1 to $16 corner X, Y*
0 $17 Rotation angle, in degrees counterclockwise*
0 create outline with 8 corners*
4,1,8,$1,$2,$3,$4,$5,$6,$7,$8,$9,$10,$11,$12,$13,$14,$15,$16,$1,$2,$17*%
G04 Aperture macros list end*
%TA.AperFunction,ComponentPad*%
%ADD10C,3.810000*%
%TD*%
%TA.AperFunction,ComponentPad*%
%ADD11C,1.665000*%
%TD*%
%TA.AperFunction,ComponentPad*%
%ADD12Outline8P,-0.660400X0.273547X-0.273547X0.660400X0.273547X0.660400X0.660400X0.273547X0.660400X-0.273547X0.273547X-0.660400X-0.273547X-0.660400X-0.660400X-0.273547X180.000000*%
%TD*%
%TA.AperFunction,ComponentPad*%
%ADD13Outline8P,-0.838200X0.347194X-0.347194X0.838200X0.347194X0.838200X0.838200X0.347194X0.838200X-0.347194X0.347194X-0.838200X-0.347194X-0.838200X-0.838200X-0.347194X90.000000*%
%TD*%
%TA.AperFunction,ComponentPad*%
%ADD14Outline8P,-0.838200X0.347194X-0.347194X0.838200X0.347194X0.838200X0.838200X0.347194X0.838200X-0.347194X0.347194X-0.838200X-0.347194X-0.838200X-0.838200X-0.347194X180.000000*%
%TD*%
%TA.AperFunction,ComponentPad*%
%ADD15Outline8P,-0.838200X0.347194X-0.347194X0.838200X0.347194X0.838200X0.838200X0.347194X0.838200X-0.347194X0.347194X-0.838200X-0.347194X-0.838200X-0.838200X-0.347194X270.000000*%
%TD*%
%TA.AperFunction,ComponentPad*%
%ADD16Outline8P,-0.838200X0.347194X-0.347194X0.838200X0.347194X0.838200X0.838200X0.347194X0.838200X-0.347194X0.347194X-0.838200X-0.347194X-0.838200X-0.838200X-0.347194X0.000000*%
%TD*%
%TA.AperFunction,ComponentPad*%
%ADD17O,2.641600X1.320800*%
%TD*%
%TA.AperFunction,ComponentPad*%
%ADD18C,1.950000*%
%TD*%
G04 APERTURE END LIST*
D10*
%TO.N,N/C*%
%TO.C,TCA9548A_MUX0*%
X153581100Y-117068600D03*
X153581100Y-91668600D03*
D11*
%TO.N,SCL7*%
X161201100Y-90398600D03*
%TO.N,SDA7*%
X161201100Y-92938600D03*
%TO.N,SCL6*%
X161201100Y-95478600D03*
%TO.N,SDA6*%
X161201100Y-98018600D03*
%TO.N,SCL5*%
X161201100Y-100558600D03*
%TO.N,SDA5*%
X161201100Y-103098600D03*
%TO.N,SCL4*%
X161201100Y-105638600D03*
%TO.N,SDA4*%
X161201100Y-108178600D03*
%TO.N,SCL3*%
X161201100Y-110718600D03*
%TO.N,SDA3*%
X161201100Y-113258600D03*
%TO.N,SCL2*%
X161201100Y-115798600D03*
%TO.N,SDA2*%
X161201100Y-118338600D03*
%TO.N,SCL1*%
X145961100Y-118338600D03*
%TO.N,SDA1*%
X145961100Y-115798600D03*
%TO.N,SCL0*%
X145961100Y-113258600D03*
%TO.N,SDA0*%
X145961100Y-110718600D03*
%TO.N,N/C*%
X145961100Y-108178600D03*
X145961100Y-105638600D03*
X145961100Y-103098600D03*
X145961100Y-100558600D03*
%TO.N,SCL*%
X145961100Y-98018600D03*
%TO.N,SDA*%
X145961100Y-95478600D03*
%TO.N,GND*%
X145961100Y-92938600D03*
%TO.N,5V*%
X145961100Y-90398600D03*
%TD*%
D12*
%TO.N,N$1*%
%TO.C,R1*%
X134531100Y-103098600D03*
%TO.N,SWITCH_VIN*%
X142151100Y-103098600D03*
%TD*%
D13*
%TO.N,SDA0*%
%TO.C,BNO_1*%
X139611100Y-107718600D03*
%TO.N,SCL0*%
X139611100Y-109718600D03*
%TO.N,5V*%
X139611100Y-111718600D03*
%TO.N,GND*%
X139611100Y-113718600D03*
%TD*%
%TO.N,SDA1*%
%TO.C,BNO_2*%
X139611100Y-117878600D03*
%TO.N,SCL1*%
X139611100Y-119878600D03*
%TO.N,5V*%
X139611100Y-121878600D03*
%TO.N,GND*%
X139611100Y-123878600D03*
%TD*%
D14*
%TO.N,SDA2*%
%TO.C,BNO_3*%
X153121100Y-123418600D03*
%TO.N,SCL2*%
X155121100Y-123418600D03*
%TO.N,5V*%
X157121100Y-123418600D03*
%TO.N,GND*%
X159121100Y-123418600D03*
%TD*%
D15*
%TO.N,SDA3*%
%TO.C,BNO_4*%
X168821100Y-121338600D03*
%TO.N,SCL3*%
X168821100Y-119338600D03*
%TO.N,5V*%
X168821100Y-117338600D03*
%TO.N,GND*%
X168821100Y-115338600D03*
%TD*%
%TO.N,SDA4*%
%TO.C,BNO_5*%
X168821100Y-111178600D03*
%TO.N,SCL4*%
X168821100Y-109178600D03*
%TO.N,5V*%
X168821100Y-107178600D03*
%TO.N,GND*%
X168821100Y-105178600D03*
%TD*%
%TO.N,SDA5*%
%TO.C,BNO_6*%
X168821100Y-101018600D03*
%TO.N,SCL5*%
X168821100Y-99018600D03*
%TO.N,5V*%
X168821100Y-97018600D03*
%TO.N,GND*%
X168821100Y-95018600D03*
%TD*%
%TO.N,SDA6*%
%TO.C,BNO_7*%
X168821100Y-90858600D03*
%TO.N,SCL6*%
X168821100Y-88858600D03*
%TO.N,5V*%
X168821100Y-86858600D03*
%TO.N,GND*%
X168821100Y-84858600D03*
%TD*%
D16*
%TO.N,SDA7*%
%TO.C,BNO_8*%
X159121100Y-85318600D03*
%TO.N,SCL7*%
X157121100Y-85318600D03*
%TO.N,5V*%
X155121100Y-85318600D03*
%TO.N,GND*%
X153121100Y-85318600D03*
%TD*%
D17*
%TO.N,N$1*%
%TO.C,T1*%
X129451100Y-96748600D03*
%TO.N,SWITCH_VCC*%
X129451100Y-99288600D03*
%TO.N,GND*%
X129451100Y-94208600D03*
%TD*%
D13*
%TO.N,5V*%
%TO.C,JETSON*%
X139611100Y-90478600D03*
%TO.N,GND*%
X139611100Y-92478600D03*
%TO.N,SDA*%
X139611100Y-94478600D03*
%TO.N,SCL*%
X139611100Y-96478600D03*
%TO.N,SWITCH_VIN*%
X139611100Y-98478600D03*
%TD*%
D18*
%TO.N,GND*%
%TO.C,POWER_IN*%
X129451100Y-118378600D03*
%TO.N,5V*%
X129451100Y-123378600D03*
%TD*%
%TO.N,GND*%
%TO.C,VICON*%
X129451100Y-110678600D03*
%TO.N,SWITCH_VCC*%
X129451100Y-105678600D03*
%TD*%
M02*
