%TF.GenerationSoftware,KiCad,Pcbnew,8.0.7*%
%TF.CreationDate,2025-04-10T14:03:15-05:00*%
%TF.ProjectId,AgBot_V2,4167426f-745f-4563-922e-6b696361645f,rev?*%
%TF.SameCoordinates,Original*%
%TF.FileFunction,Copper,L1,Top*%
%TF.FilePolarity,Positive*%
%FSLAX46Y46*%
G04 Gerber Fmt 4.6, Leading zero omitted, Abs format (unit mm)*
G04 Created by KiCad (PCBNEW 8.0.7) date 2025-04-10 14:03:15*
%MOMM*%
%LPD*%
G01*
G04 APERTURE LIST*
G04 Aperture macros list*
%AMOutline5P*
0 Free polygon, 5 corners , with rotation*
0 The origin of the aperture is its center*
0 number of corners: always 5*
0 $1 to $10 corner X, Y*
0 $11 Rotation angle, in degrees counterclockwise*
0 create outline with 5 corners*
4,1,5,$1,$2,$3,$4,$5,$6,$7,$8,$9,$10,$1,$2,$11*%
%AMOutline6P*
0 Free polygon, 6 corners , with rotation*
0 The origin of the aperture is its center*
0 number of corners: always 6*
0 $1 to $12 corner X, Y*
0 $13 Rotation angle, in degrees counterclockwise*
0 create outline with 6 corners*
4,1,6,$1,$2,$3,$4,$5,$6,$7,$8,$9,$10,$11,$12,$1,$2,$13*%
%AMOutline7P*
0 Free polygon, 7 corners , with rotation*
0 The origin of the aperture is its center*
0 number of corners: always 7*
0 $1 to $14 corner X, Y*
0 $15 Rotation angle, in degrees counterclockwise*
0 create outline with 7 corners*
4,1,7,$1,$2,$3,$4,$5,$6,$7,$8,$9,$10,$11,$12,$13,$14,$1,$2,$15*%
%AMOutline8P*
0 Free polygon, 8 corners , with rotation*
0 The origin of the aperture is its center*
0 number of corners: always 8*
0 $1 to $16 corner X, Y*
0 $17 Rotation angle, in degrees counterclockwise*
0 create outline with 8 corners*
4,1,8,$1,$2,$3,$4,$5,$6,$7,$8,$9,$10,$11,$12,$13,$14,$15,$16,$1,$2,$17*%
G04 Aperture macros list end*
%TA.AperFunction,ComponentPad*%
%ADD10C,3.810000*%
%TD*%
%TA.AperFunction,ComponentPad*%
%ADD11C,1.665000*%
%TD*%
%TA.AperFunction,ComponentPad*%
%ADD12Outline8P,-0.660400X0.273547X-0.273547X0.660400X0.273547X0.660400X0.660400X0.273547X0.660400X-0.273547X0.273547X-0.660400X-0.273547X-0.660400X-0.660400X-0.273547X180.000000*%
%TD*%
%TA.AperFunction,ComponentPad*%
%ADD13Outline8P,-0.838200X0.347194X-0.347194X0.838200X0.347194X0.838200X0.838200X0.347194X0.838200X-0.347194X0.347194X-0.838200X-0.347194X-0.838200X-0.838200X-0.347194X90.000000*%
%TD*%
%TA.AperFunction,ComponentPad*%
%ADD14Outline8P,-0.838200X0.347194X-0.347194X0.838200X0.347194X0.838200X0.838200X0.347194X0.838200X-0.347194X0.347194X-0.838200X-0.347194X-0.838200X-0.838200X-0.347194X180.000000*%
%TD*%
%TA.AperFunction,ComponentPad*%
%ADD15Outline8P,-0.838200X0.347194X-0.347194X0.838200X0.347194X0.838200X0.838200X0.347194X0.838200X-0.347194X0.347194X-0.838200X-0.347194X-0.838200X-0.838200X-0.347194X270.000000*%
%TD*%
%TA.AperFunction,ComponentPad*%
%ADD16Outline8P,-0.838200X0.347194X-0.347194X0.838200X0.347194X0.838200X0.838200X0.347194X0.838200X-0.347194X0.347194X-0.838200X-0.347194X-0.838200X-0.838200X-0.347194X0.000000*%
%TD*%
%TA.AperFunction,ComponentPad*%
%ADD17O,2.641600X1.320800*%
%TD*%
%TA.AperFunction,ComponentPad*%
%ADD18C,1.950000*%
%TD*%
%TA.AperFunction,Conductor*%
%ADD19C,1.000000*%
%TD*%
%TA.AperFunction,Conductor*%
%ADD20C,1.270000*%
%TD*%
G04 APERTURE END LIST*
D10*
%TO.P,TCA9548A_MUX0,26*%
%TO.N,N/C*%
X153581100Y-117068600D03*
%TO.P,TCA9548A_MUX0,25*%
X153581100Y-91668600D03*
D11*
%TO.P,TCA9548A_MUX0,24*%
%TO.N,SCL7*%
X161201100Y-90398600D03*
%TO.P,TCA9548A_MUX0,23*%
%TO.N,SDA7*%
X161201100Y-92938600D03*
%TO.P,TCA9548A_MUX0,22*%
%TO.N,SCL6*%
X161201100Y-95478600D03*
%TO.P,TCA9548A_MUX0,21*%
%TO.N,SDA6*%
X161201100Y-98018600D03*
%TO.P,TCA9548A_MUX0,20*%
%TO.N,SCL5*%
X161201100Y-100558600D03*
%TO.P,TCA9548A_MUX0,19*%
%TO.N,SDA5*%
X161201100Y-103098600D03*
%TO.P,TCA9548A_MUX0,18*%
%TO.N,SCL4*%
X161201100Y-105638600D03*
%TO.P,TCA9548A_MUX0,17*%
%TO.N,SDA4*%
X161201100Y-108178600D03*
%TO.P,TCA9548A_MUX0,16*%
%TO.N,SCL3*%
X161201100Y-110718600D03*
%TO.P,TCA9548A_MUX0,15*%
%TO.N,SDA3*%
X161201100Y-113258600D03*
%TO.P,TCA9548A_MUX0,14*%
%TO.N,SCL2*%
X161201100Y-115798600D03*
%TO.P,TCA9548A_MUX0,13*%
%TO.N,SDA2*%
X161201100Y-118338600D03*
%TO.P,TCA9548A_MUX0,12*%
%TO.N,SCL1*%
X145961100Y-118338600D03*
%TO.P,TCA9548A_MUX0,11*%
%TO.N,SDA1*%
X145961100Y-115798600D03*
%TO.P,TCA9548A_MUX0,10*%
%TO.N,SCL0*%
X145961100Y-113258600D03*
%TO.P,TCA9548A_MUX0,9*%
%TO.N,SDA0*%
X145961100Y-110718600D03*
%TO.P,TCA9548A_MUX0,8*%
%TO.N,N/C*%
X145961100Y-108178600D03*
%TO.P,TCA9548A_MUX0,7*%
X145961100Y-105638600D03*
%TO.P,TCA9548A_MUX0,6*%
X145961100Y-103098600D03*
%TO.P,TCA9548A_MUX0,5*%
X145961100Y-100558600D03*
%TO.P,TCA9548A_MUX0,4*%
%TO.N,SCL*%
X145961100Y-98018600D03*
%TO.P,TCA9548A_MUX0,3*%
%TO.N,SDA*%
X145961100Y-95478600D03*
%TO.P,TCA9548A_MUX0,2*%
%TO.N,GND*%
X145961100Y-92938600D03*
%TO.P,TCA9548A_MUX0,1*%
%TO.N,5V*%
X145961100Y-90398600D03*
%TD*%
D12*
%TO.P,R1,2*%
%TO.N,N$1*%
X134531100Y-103098600D03*
%TO.P,R1,1*%
%TO.N,SWITCH_VIN*%
X142151100Y-103098600D03*
%TD*%
D13*
%TO.P,BNO_1,1*%
%TO.N,SDA0*%
X139611100Y-107718600D03*
%TO.P,BNO_1,2*%
%TO.N,SCL0*%
X139611100Y-109718600D03*
%TO.P,BNO_1,3*%
%TO.N,5V*%
X139611100Y-111718600D03*
%TO.P,BNO_1,4*%
%TO.N,GND*%
X139611100Y-113718600D03*
%TD*%
%TO.P,BNO_2,1*%
%TO.N,SDA1*%
X139611100Y-117878600D03*
%TO.P,BNO_2,2*%
%TO.N,SCL1*%
X139611100Y-119878600D03*
%TO.P,BNO_2,3*%
%TO.N,5V*%
X139611100Y-121878600D03*
%TO.P,BNO_2,4*%
%TO.N,GND*%
X139611100Y-123878600D03*
%TD*%
D14*
%TO.P,BNO_3,1*%
%TO.N,SDA2*%
X153121100Y-123418600D03*
%TO.P,BNO_3,2*%
%TO.N,SCL2*%
X155121100Y-123418600D03*
%TO.P,BNO_3,3*%
%TO.N,5V*%
X157121100Y-123418600D03*
%TO.P,BNO_3,4*%
%TO.N,GND*%
X159121100Y-123418600D03*
%TD*%
D15*
%TO.P,BNO_4,1*%
%TO.N,SDA3*%
X168821100Y-121338600D03*
%TO.P,BNO_4,2*%
%TO.N,SCL3*%
X168821100Y-119338600D03*
%TO.P,BNO_4,3*%
%TO.N,5V*%
X168821100Y-117338600D03*
%TO.P,BNO_4,4*%
%TO.N,GND*%
X168821100Y-115338600D03*
%TD*%
%TO.P,BNO_5,1*%
%TO.N,SDA4*%
X168821100Y-111178600D03*
%TO.P,BNO_5,2*%
%TO.N,SCL4*%
X168821100Y-109178600D03*
%TO.P,BNO_5,3*%
%TO.N,5V*%
X168821100Y-107178600D03*
%TO.P,BNO_5,4*%
%TO.N,GND*%
X168821100Y-105178600D03*
%TD*%
%TO.P,BNO_6,1*%
%TO.N,SDA5*%
X168821100Y-101018600D03*
%TO.P,BNO_6,2*%
%TO.N,SCL5*%
X168821100Y-99018600D03*
%TO.P,BNO_6,3*%
%TO.N,5V*%
X168821100Y-97018600D03*
%TO.P,BNO_6,4*%
%TO.N,GND*%
X168821100Y-95018600D03*
%TD*%
%TO.P,BNO_7,1*%
%TO.N,SDA6*%
X168821100Y-90858600D03*
%TO.P,BNO_7,2*%
%TO.N,SCL6*%
X168821100Y-88858600D03*
%TO.P,BNO_7,3*%
%TO.N,5V*%
X168821100Y-86858600D03*
%TO.P,BNO_7,4*%
%TO.N,GND*%
X168821100Y-84858600D03*
%TD*%
D16*
%TO.P,BNO_8,1*%
%TO.N,SDA7*%
X159121100Y-85318600D03*
%TO.P,BNO_8,2*%
%TO.N,SCL7*%
X157121100Y-85318600D03*
%TO.P,BNO_8,3*%
%TO.N,5V*%
X155121100Y-85318600D03*
%TO.P,BNO_8,4*%
%TO.N,GND*%
X153121100Y-85318600D03*
%TD*%
D17*
%TO.P,T1,B*%
%TO.N,N$1*%
X129451100Y-96748600D03*
%TO.P,T1,C*%
%TO.N,SWITCH_VCC*%
X129451100Y-99288600D03*
%TO.P,T1,E*%
%TO.N,GND*%
X129451100Y-94208600D03*
%TD*%
D13*
%TO.P,JETSON,1*%
%TO.N,5V*%
X139611100Y-90478600D03*
%TO.P,JETSON,2*%
%TO.N,GND*%
X139611100Y-92478600D03*
%TO.P,JETSON,3*%
%TO.N,SDA*%
X139611100Y-94478600D03*
%TO.P,JETSON,4*%
%TO.N,SCL*%
X139611100Y-96478600D03*
%TO.P,JETSON,5*%
%TO.N,SWITCH_VIN*%
X139611100Y-98478600D03*
%TD*%
D18*
%TO.P,POWER_IN,2*%
%TO.N,GND*%
X129451100Y-118378600D03*
%TO.P,POWER_IN,1*%
%TO.N,5V*%
X129451100Y-123378600D03*
%TD*%
%TO.P,VICON,2*%
%TO.N,GND*%
X129451100Y-110678600D03*
%TO.P,VICON,1*%
%TO.N,SWITCH_VCC*%
X129451100Y-105678600D03*
%TD*%
D19*
%TO.N,GND*%
X137192500Y-123878600D02*
X137071100Y-124000000D01*
D20*
X137071100Y-124000000D02*
X137071100Y-125958600D01*
X137071100Y-118338600D02*
X137071100Y-124000000D01*
D19*
X139611100Y-123878600D02*
X137192500Y-123878600D01*
D20*
X137071100Y-125958600D02*
X148043900Y-125958600D01*
X165500000Y-126500000D02*
X165500000Y-123907500D01*
X165500000Y-123907500D02*
X165011100Y-123418600D01*
X148585300Y-126500000D02*
X165500000Y-126500000D01*
X148043900Y-125958600D02*
X148585300Y-126500000D01*
%TO.N,SWITCH_VCC*%
X129451100Y-105678600D02*
X129451100Y-99288600D01*
%TO.N,GND*%
X148043900Y-125958600D02*
X148501100Y-125501400D01*
X165011100Y-123418600D02*
X159121100Y-123418600D01*
X165011100Y-115338600D02*
X165011100Y-123418600D01*
X148501100Y-85318600D02*
X153121100Y-85318600D01*
X148501100Y-92938600D02*
X148501100Y-85318600D01*
X126098300Y-94208600D02*
X129451100Y-94208600D01*
X126098300Y-110718600D02*
X126098300Y-94208600D01*
X129411100Y-110718600D02*
X126098300Y-110718600D01*
X129451100Y-110678600D02*
X129411100Y-110718600D01*
X145961100Y-92938600D02*
X140370050Y-92938600D01*
X140284450Y-92853000D02*
X139611100Y-92853000D01*
X140370050Y-92938600D02*
X140284450Y-92853000D01*
X129451100Y-110678600D02*
X129451100Y-118338600D01*
X129491100Y-118338600D02*
X137071100Y-118338600D01*
X129451100Y-118378600D02*
X129491100Y-118338600D01*
X158661100Y-87858600D02*
X165011100Y-87858600D01*
X158661100Y-95478600D02*
X158661100Y-87858600D01*
X148501100Y-95478600D02*
X158661100Y-95478600D01*
X165011100Y-105178600D02*
X165011100Y-115338600D01*
X168821100Y-115338600D02*
X165011100Y-115338600D01*
X165011100Y-105178600D02*
X165011100Y-95018600D01*
X168821100Y-105178600D02*
X165011100Y-105178600D01*
X165011100Y-87858600D02*
X165011100Y-84858600D01*
X165011100Y-95018600D02*
X165011100Y-87858600D01*
X168821100Y-95018600D02*
X165011100Y-95018600D01*
X168821100Y-84858600D02*
X165011100Y-84858600D01*
X137071100Y-113718600D02*
X137071100Y-118338600D01*
X139611100Y-113718600D02*
X137071100Y-113718600D01*
X145961100Y-92938600D02*
X148501100Y-92938600D01*
X148501100Y-95478600D02*
X148501100Y-92938600D01*
X148501100Y-125501400D02*
X148501100Y-95478600D01*
%TO.N,SCL2*%
X154851100Y-123148600D02*
X155121100Y-123418600D01*
X154851100Y-122148600D02*
X154851100Y-123148600D01*
X161201100Y-115798600D02*
X154851100Y-122148600D01*
%TO.N,SCL*%
X141450050Y-98018600D02*
X140284450Y-96853000D01*
X145961100Y-98018600D02*
X141450050Y-98018600D01*
X139985500Y-96853000D02*
X139611100Y-96478600D01*
X140284450Y-96853000D02*
X139985500Y-96853000D01*
X145859500Y-98018600D02*
X145859500Y-97967800D01*
%TD*%
M02*
